<mxfile host="Electron" modified="2023-09-23T16:49:20.982Z" agent="Mozilla/5.0 (Windows NT 10.0; Win64; x64) AppleWebKit/537.36 (KHTML, like Gecko) draw.io/21.6.8 Chrome/114.0.5735.289 Electron/25.5.0 Safari/537.36" etag="NU5k4QMKxhY9RVLUVDLE" version="21.6.8" type="device">
  <diagram name="Page-1" id="iw9HBjLqABTfdSqXGwMk">
    <mxGraphModel dx="2044" dy="1197" grid="0" gridSize="10" guides="1" tooltips="1" connect="1" arrows="1" fold="1" page="1" pageScale="1" pageWidth="1169" pageHeight="827" background="none" math="0" shadow="0">
      <root>
        <mxCell id="0" />
        <mxCell id="1" parent="0" />
        <mxCell id="gGiwMx9QiMazWThnVali-4" style="edgeStyle=orthogonalEdgeStyle;sketch=1;hachureGap=4;jiggle=2;curveFitting=1;orthogonalLoop=1;jettySize=auto;html=1;fontFamily=Architects Daughter;fontSource=https%3A%2F%2Ffonts.googleapis.com%2Fcss%3Ffamily%3DArchitects%2BDaughter;fontSize=16;curved=1;" parent="1" source="prTSOB0Ut9Qwy-XwtZUk-18" target="gGiwMx9QiMazWThnVali-2" edge="1">
          <mxGeometry relative="1" as="geometry" />
        </mxCell>
        <mxCell id="prTSOB0Ut9Qwy-XwtZUk-18" value="" style="ellipse;whiteSpace=wrap;html=1;sketch=1;hachureGap=4;jiggle=2;curveFitting=1;fontFamily=Architects Daughter;fontSource=https%3A%2F%2Ffonts.googleapis.com%2Fcss%3Ffamily%3DArchitects%2BDaughter;fontSize=20;" parent="1" vertex="1">
          <mxGeometry x="49" y="4518" width="587" height="405" as="geometry" />
        </mxCell>
        <mxCell id="t03bDn6xGk0svH1o40CN-93" style="edgeStyle=orthogonalEdgeStyle;sketch=1;hachureGap=4;jiggle=2;curveFitting=1;orthogonalLoop=1;jettySize=auto;html=1;fontFamily=Architects Daughter;fontSource=https%3A%2F%2Ffonts.googleapis.com%2Fcss%3Ffamily%3DArchitects%2BDaughter;fontSize=16;curved=1;dashed=1;" parent="1" source="t03bDn6xGk0svH1o40CN-61" target="t03bDn6xGk0svH1o40CN-92" edge="1">
          <mxGeometry relative="1" as="geometry" />
        </mxCell>
        <mxCell id="4Mnw6en9qDmpaSsgo7LY-3" style="edgeStyle=orthogonalEdgeStyle;sketch=1;hachureGap=4;jiggle=2;curveFitting=1;orthogonalLoop=1;jettySize=auto;html=1;exitX=1;exitY=0.5;exitDx=0;exitDy=0;entryX=0;entryY=0.5;entryDx=0;entryDy=0;fontFamily=Architects Daughter;fontSource=https%3A%2F%2Ffonts.googleapis.com%2Fcss%3Ffamily%3DArchitects%2BDaughter;fontSize=16;curved=1;" parent="1" source="t03bDn6xGk0svH1o40CN-61" target="t03bDn6xGk0svH1o40CN-59" edge="1">
          <mxGeometry relative="1" as="geometry" />
        </mxCell>
        <mxCell id="t03bDn6xGk0svH1o40CN-61" value="" style="ellipse;whiteSpace=wrap;html=1;sketch=1;hachureGap=4;jiggle=2;curveFitting=1;fontFamily=Architects Daughter;fontSource=https%3A%2F%2Ffonts.googleapis.com%2Fcss%3Ffamily%3DArchitects%2BDaughter;fontSize=20;" parent="1" vertex="1">
          <mxGeometry x="90" y="1910" width="594" height="448" as="geometry" />
        </mxCell>
        <mxCell id="t03bDn6xGk0svH1o40CN-21" style="edgeStyle=orthogonalEdgeStyle;sketch=1;hachureGap=4;jiggle=2;curveFitting=1;orthogonalLoop=1;jettySize=auto;html=1;exitX=1;exitY=0.5;exitDx=0;exitDy=0;fontFamily=Architects Daughter;fontSource=https%3A%2F%2Ffonts.googleapis.com%2Fcss%3Ffamily%3DArchitects%2BDaughter;fontSize=16;curved=1;" parent="1" source="t03bDn6xGk0svH1o40CN-8" target="t03bDn6xGk0svH1o40CN-19" edge="1">
          <mxGeometry relative="1" as="geometry" />
        </mxCell>
        <mxCell id="t03bDn6xGk0svH1o40CN-8" value="contrÃ´les joueur" style="rounded=0;whiteSpace=wrap;html=1;sketch=1;hachureGap=4;jiggle=2;curveFitting=1;fontFamily=Architects Daughter;fontSource=https%3A%2F%2Ffonts.googleapis.com%2Fcss%3Ffamily%3DArchitects%2BDaughter;fontSize=20;fillColor=#d5e8d4;strokeColor=#82b366;" parent="1" vertex="1">
          <mxGeometry x="99" y="977" width="120" height="60" as="geometry" />
        </mxCell>
        <mxCell id="t03bDn6xGk0svH1o40CN-20" style="edgeStyle=orthogonalEdgeStyle;sketch=1;hachureGap=4;jiggle=2;curveFitting=1;orthogonalLoop=1;jettySize=auto;html=1;exitX=1;exitY=0.5;exitDx=0;exitDy=0;fontFamily=Architects Daughter;fontSource=https%3A%2F%2Ffonts.googleapis.com%2Fcss%3Ffamily%3DArchitects%2BDaughter;fontSize=16;curved=1;" parent="1" source="t03bDn6xGk0svH1o40CN-9" target="t03bDn6xGk0svH1o40CN-19" edge="1">
          <mxGeometry relative="1" as="geometry" />
        </mxCell>
        <mxCell id="t03bDn6xGk0svH1o40CN-9" value="utilisation des orbes" style="rounded=0;whiteSpace=wrap;html=1;sketch=1;hachureGap=4;jiggle=2;curveFitting=1;fontFamily=Architects Daughter;fontSource=https%3A%2F%2Ffonts.googleapis.com%2Fcss%3Ffamily%3DArchitects%2BDaughter;fontSize=20;fillColor=#d5e8d4;strokeColor=#82b366;" parent="1" vertex="1">
          <mxGeometry x="99" y="1123" width="120" height="60" as="geometry" />
        </mxCell>
        <mxCell id="t03bDn6xGk0svH1o40CN-22" style="edgeStyle=orthogonalEdgeStyle;sketch=1;hachureGap=4;jiggle=2;curveFitting=1;orthogonalLoop=1;jettySize=auto;html=1;exitX=1;exitY=0.5;exitDx=0;exitDy=0;fontFamily=Architects Daughter;fontSource=https%3A%2F%2Ffonts.googleapis.com%2Fcss%3Ffamily%3DArchitects%2BDaughter;fontSize=16;curved=1;" parent="1" source="t03bDn6xGk0svH1o40CN-10" target="t03bDn6xGk0svH1o40CN-19" edge="1">
          <mxGeometry relative="1" as="geometry" />
        </mxCell>
        <mxCell id="t03bDn6xGk0svH1o40CN-10" value="fabrication/&lt;br&gt;utilisation de sorts" style="rounded=0;whiteSpace=wrap;html=1;sketch=1;hachureGap=4;jiggle=2;curveFitting=1;fontFamily=Architects Daughter;fontSource=https%3A%2F%2Ffonts.googleapis.com%2Fcss%3Ffamily%3DArchitects%2BDaughter;fontSize=20;fillColor=#d5e8d4;strokeColor=#82b366;" parent="1" vertex="1">
          <mxGeometry x="83" y="1249" width="173" height="63" as="geometry" />
        </mxCell>
        <mxCell id="t03bDn6xGk0svH1o40CN-23" style="edgeStyle=orthogonalEdgeStyle;sketch=1;hachureGap=4;jiggle=2;curveFitting=1;orthogonalLoop=1;jettySize=auto;html=1;exitX=1;exitY=0.5;exitDx=0;exitDy=0;fontFamily=Architects Daughter;fontSource=https%3A%2F%2Ffonts.googleapis.com%2Fcss%3Ffamily%3DArchitects%2BDaughter;fontSize=16;curved=1;" parent="1" source="t03bDn6xGk0svH1o40CN-11" target="t03bDn6xGk0svH1o40CN-19" edge="1">
          <mxGeometry relative="1" as="geometry" />
        </mxCell>
        <mxCell id="t03bDn6xGk0svH1o40CN-11" value="monstres basiques" style="rounded=0;whiteSpace=wrap;html=1;sketch=1;hachureGap=4;jiggle=2;curveFitting=1;fontFamily=Architects Daughter;fontSource=https%3A%2F%2Ffonts.googleapis.com%2Fcss%3Ffamily%3DArchitects%2BDaughter;fontSize=20;fillColor=#d5e8d4;strokeColor=#82b366;" parent="1" vertex="1">
          <mxGeometry x="92" y="1378" width="120" height="60" as="geometry" />
        </mxCell>
        <mxCell id="t03bDn6xGk0svH1o40CN-26" style="edgeStyle=orthogonalEdgeStyle;sketch=1;hachureGap=4;jiggle=2;curveFitting=1;orthogonalLoop=1;jettySize=auto;html=1;exitX=1;exitY=0.5;exitDx=0;exitDy=0;fontFamily=Architects Daughter;fontSource=https%3A%2F%2Ffonts.googleapis.com%2Fcss%3Ffamily%3DArchitects%2BDaughter;fontSize=16;curved=1;" parent="1" source="t03bDn6xGk0svH1o40CN-19" target="t03bDn6xGk0svH1o40CN-68" edge="1">
          <mxGeometry relative="1" as="geometry">
            <mxPoint x="660.0000000000005" y="1209.5263157894738" as="targetPoint" />
          </mxGeometry>
        </mxCell>
        <mxCell id="t03bDn6xGk0svH1o40CN-19" value="le jeu est jouable&lt;br&gt;mais pas fun&lt;br&gt;&lt;br&gt;pourquoi ?" style="rounded=1;whiteSpace=wrap;html=1;sketch=1;hachureGap=4;jiggle=2;curveFitting=1;fontFamily=Architects Daughter;fontSource=https%3A%2F%2Ffonts.googleapis.com%2Fcss%3Ffamily%3DArchitects%2BDaughter;fontSize=20;fillColor=#ffe6cc;strokeColor=#d79b00;" parent="1" vertex="1">
          <mxGeometry x="352" y="1142" width="215" height="139" as="geometry" />
        </mxCell>
        <mxCell id="t03bDn6xGk0svH1o40CN-29" style="edgeStyle=orthogonalEdgeStyle;sketch=1;hachureGap=4;jiggle=2;curveFitting=1;orthogonalLoop=1;jettySize=auto;html=1;fontFamily=Architects Daughter;fontSource=https%3A%2F%2Ffonts.googleapis.com%2Fcss%3Ffamily%3DArchitects%2BDaughter;fontSize=16;curved=1;" parent="1" source="t03bDn6xGk0svH1o40CN-68" target="t03bDn6xGk0svH1o40CN-73" edge="1">
          <mxGeometry relative="1" as="geometry">
            <mxPoint x="777.5000000000005" y="1271" as="sourcePoint" />
            <mxPoint x="795.5" y="1370" as="targetPoint" />
          </mxGeometry>
        </mxCell>
        <mxCell id="t03bDn6xGk0svH1o40CN-34" style="edgeStyle=orthogonalEdgeStyle;sketch=1;hachureGap=4;jiggle=2;curveFitting=1;orthogonalLoop=1;jettySize=auto;html=1;exitX=0.5;exitY=1;exitDx=0;exitDy=0;fontFamily=Architects Daughter;fontSource=https%3A%2F%2Ffonts.googleapis.com%2Fcss%3Ffamily%3DArchitects%2BDaughter;fontSize=16;curved=1;" parent="1" source="t03bDn6xGk0svH1o40CN-73" target="t03bDn6xGk0svH1o40CN-74" edge="1">
          <mxGeometry relative="1" as="geometry">
            <mxPoint x="795.5" y="1493" as="sourcePoint" />
            <mxPoint x="275" y="1648" as="targetPoint" />
          </mxGeometry>
        </mxCell>
        <mxCell id="t03bDn6xGk0svH1o40CN-31" value="Roadmap&lt;br style=&quot;font-size: 32px;&quot;&gt;Spellforger" style="shape=parallelogram;perimeter=parallelogramPerimeter;whiteSpace=wrap;html=1;fixedSize=1;sketch=1;hachureGap=4;jiggle=2;curveFitting=1;fontFamily=Architects Daughter;fontSource=https%3A%2F%2Ffonts.googleapis.com%2Fcss%3Ffamily%3DArchitects%2BDaughter;fontSize=32;fontStyle=1" parent="1" vertex="1">
          <mxGeometry x="463" y="38" width="299" height="99" as="geometry" />
        </mxCell>
        <mxCell id="t03bDn6xGk0svH1o40CN-32" value="" style="endArrow=none;dashed=1;html=1;rounded=0;sketch=1;hachureGap=4;jiggle=2;curveFitting=1;fontFamily=Architects Daughter;fontSource=https%3A%2F%2Ffonts.googleapis.com%2Fcss%3Ffamily%3DArchitects%2BDaughter;fontSize=16;" parent="1" edge="1">
          <mxGeometry width="50" height="50" relative="1" as="geometry">
            <mxPoint x="92" y="1561" as="sourcePoint" />
            <mxPoint x="1118" y="1531" as="targetPoint" />
          </mxGeometry>
        </mxCell>
        <mxCell id="t03bDn6xGk0svH1o40CN-35" value="meteor" style="rounded=0;whiteSpace=wrap;html=1;sketch=1;hachureGap=4;jiggle=2;curveFitting=1;fontFamily=Architects Daughter;fontSource=https%3A%2F%2Ffonts.googleapis.com%2Fcss%3Ffamily%3DArchitects%2BDaughter;fontSize=20;fillColor=#d5e8d4;strokeColor=#82b366;" parent="1" vertex="1">
          <mxGeometry x="322" y="2116" width="159" height="68" as="geometry" />
        </mxCell>
        <mxCell id="t03bDn6xGk0svH1o40CN-37" value="eruption" style="rounded=0;whiteSpace=wrap;html=1;sketch=1;hachureGap=4;jiggle=2;curveFitting=1;fontFamily=Architects Daughter;fontSource=https%3A%2F%2Ffonts.googleapis.com%2Fcss%3Ffamily%3DArchitects%2BDaughter;fontSize=20;fillColor=#d5e8d4;strokeColor=#82b366;" parent="1" vertex="1">
          <mxGeometry x="145" y="2040" width="159" height="68" as="geometry" />
        </mxCell>
        <mxCell id="t03bDn6xGk0svH1o40CN-42" value="tornado" style="rounded=0;whiteSpace=wrap;html=1;sketch=1;hachureGap=4;jiggle=2;curveFitting=1;fontFamily=Architects Daughter;fontSource=https%3A%2F%2Ffonts.googleapis.com%2Fcss%3Ffamily%3DArchitects%2BDaughter;fontSize=20;fillColor=#d5e8d4;strokeColor=#82b366;" parent="1" vertex="1">
          <mxGeometry x="145" y="2159" width="159" height="68" as="geometry" />
        </mxCell>
        <mxCell id="t03bDn6xGk0svH1o40CN-47" value="tempest" style="rounded=0;whiteSpace=wrap;html=1;sketch=1;hachureGap=4;jiggle=2;curveFitting=1;fontFamily=Architects Daughter;fontSource=https%3A%2F%2Ffonts.googleapis.com%2Fcss%3Ffamily%3DArchitects%2BDaughter;fontSize=20;fillColor=#d5e8d4;strokeColor=#82b366;" parent="1" vertex="1">
          <mxGeometry x="492" y="2034" width="159" height="68" as="geometry" />
        </mxCell>
        <mxCell id="t03bDn6xGk0svH1o40CN-50" value="thundercharge" style="rounded=0;whiteSpace=wrap;html=1;sketch=1;hachureGap=4;jiggle=2;curveFitting=1;fontFamily=Architects Daughter;fontSource=https%3A%2F%2Ffonts.googleapis.com%2Fcss%3Ffamily%3DArchitects%2BDaughter;fontSize=20;fillColor=#d5e8d4;strokeColor=#82b366;" parent="1" vertex="1">
          <mxGeometry x="420" y="2208" width="159" height="68" as="geometry" />
        </mxCell>
        <mxCell id="t03bDn6xGk0svH1o40CN-57" value="09/09/2023" style="ellipse;whiteSpace=wrap;html=1;sketch=1;hachureGap=4;jiggle=2;curveFitting=1;fontFamily=Architects Daughter;fontSource=https%3A%2F%2Ffonts.googleapis.com%2Fcss%3Ffamily%3DArchitects%2BDaughter;fontSize=20;" parent="1" vertex="1">
          <mxGeometry x="140" y="1578" width="120" height="80" as="geometry" />
        </mxCell>
        <mxCell id="t03bDn6xGk0svH1o40CN-58" value="doit finir avant le&lt;br&gt;13/09/2023" style="ellipse;whiteSpace=wrap;html=1;sketch=1;hachureGap=4;jiggle=2;curveFitting=1;fontFamily=Architects Daughter;fontSource=https%3A%2F%2Ffonts.googleapis.com%2Fcss%3Ffamily%3DArchitects%2BDaughter;fontSize=20;" parent="1" vertex="1">
          <mxGeometry x="280" y="1939" width="243" height="80" as="geometry" />
        </mxCell>
        <mxCell id="4Mnw6en9qDmpaSsgo7LY-2" style="edgeStyle=orthogonalEdgeStyle;sketch=1;hachureGap=4;jiggle=2;curveFitting=1;orthogonalLoop=1;jettySize=auto;html=1;exitX=0.5;exitY=1;exitDx=0;exitDy=0;fontFamily=Architects Daughter;fontSource=https%3A%2F%2Ffonts.googleapis.com%2Fcss%3Ffamily%3DArchitects%2BDaughter;fontSize=16;curved=1;" parent="1" source="t03bDn6xGk0svH1o40CN-59" target="4Mnw6en9qDmpaSsgo7LY-1" edge="1">
          <mxGeometry relative="1" as="geometry" />
        </mxCell>
        <mxCell id="t03bDn6xGk0svH1o40CN-59" value="le jeu est un peu fun&lt;br&gt;&lt;br&gt;mais souffre de pas mal de dÃ©fauts" style="rounded=1;whiteSpace=wrap;html=1;sketch=1;hachureGap=4;jiggle=2;curveFitting=1;fontFamily=Architects Daughter;fontSource=https%3A%2F%2Ffonts.googleapis.com%2Fcss%3Ffamily%3DArchitects%2BDaughter;fontSize=20;fillColor=#ffe6cc;strokeColor=#d79b00;" parent="1" vertex="1">
          <mxGeometry x="825" y="1740" width="279" height="146" as="geometry" />
        </mxCell>
        <mxCell id="t03bDn6xGk0svH1o40CN-66" value="fonctionnalitÃ© ajoutÃ©e et disponible sur steam" style="rounded=0;whiteSpace=wrap;html=1;sketch=1;hachureGap=4;jiggle=2;curveFitting=1;fontFamily=Architects Daughter;fontSource=https%3A%2F%2Ffonts.googleapis.com%2Fcss%3Ffamily%3DArchitects%2BDaughter;fontSize=20;fillColor=#d5e8d4;strokeColor=#82b366;" parent="1" vertex="1">
          <mxGeometry x="346" y="630" width="222" height="82" as="geometry" />
        </mxCell>
        <mxCell id="t03bDn6xGk0svH1o40CN-67" value="fonctionnalitÃ©&lt;br&gt;Ã  venir" style="rounded=0;whiteSpace=wrap;html=1;sketch=1;hachureGap=4;jiggle=2;curveFitting=1;fontFamily=Architects Daughter;fontSource=https%3A%2F%2Ffonts.googleapis.com%2Fcss%3Ffamily%3DArchitects%2BDaughter;fontSize=20;fillColor=#f8cecc;strokeColor=#b85450;" parent="1" vertex="1">
          <mxGeometry x="651.5" y="644" width="142" height="60" as="geometry" />
        </mxCell>
        <mxCell id="t03bDn6xGk0svH1o40CN-68" value="manque de feeling,&lt;br&gt;et pas assez de sorts&lt;br&gt;&lt;br&gt;la suite" style="rounded=1;whiteSpace=wrap;html=1;sketch=1;hachureGap=4;jiggle=2;curveFitting=1;fontFamily=Architects Daughter;fontSource=https%3A%2F%2Ffonts.googleapis.com%2Fcss%3Ffamily%3DArchitects%2BDaughter;fontSize=20;fillColor=#e1d5e7;strokeColor=#9673a6;" parent="1" vertex="1">
          <mxGeometry x="683.5" y="1153" width="224" height="117" as="geometry" />
        </mxCell>
        <mxCell id="t03bDn6xGk0svH1o40CN-73" value="on ajoute des sorts qui manque jusqu&#39;Ã  en avoir 10, et ensuite, on s&#39;occupe du feeling" style="rounded=1;whiteSpace=wrap;html=1;sketch=1;hachureGap=4;jiggle=2;curveFitting=1;fontFamily=Architects Daughter;fontSource=https%3A%2F%2Ffonts.googleapis.com%2Fcss%3Ffamily%3DArchitects%2BDaughter;fontSize=20;fillColor=#e1d5e7;strokeColor=#9673a6;" parent="1" vertex="1">
          <mxGeometry x="651" y="1364" width="289" height="118" as="geometry" />
        </mxCell>
        <mxCell id="t03bDn6xGk0svH1o40CN-81" style="edgeStyle=orthogonalEdgeStyle;sketch=1;hachureGap=4;jiggle=2;curveFitting=1;orthogonalLoop=1;jettySize=auto;html=1;entryX=0;entryY=0.5;entryDx=0;entryDy=0;fontFamily=Architects Daughter;fontSource=https%3A%2F%2Ffonts.googleapis.com%2Fcss%3Ffamily%3DArchitects%2BDaughter;fontSize=16;curved=1;" parent="1" source="t03bDn6xGk0svH1o40CN-74" target="t03bDn6xGk0svH1o40CN-61" edge="1">
          <mxGeometry relative="1" as="geometry">
            <Array as="points">
              <mxPoint x="259" y="1935" />
              <mxPoint x="70" y="1935" />
              <mxPoint x="70" y="2128" />
              <mxPoint x="90" y="2128" />
            </Array>
          </mxGeometry>
        </mxCell>
        <mxCell id="t03bDn6xGk0svH1o40CN-74" value="comment on planifie Ã§a ?&lt;br&gt;&lt;br&gt;on ajoute rapidement 5 sorts&lt;br&gt;- gameplay OK&lt;br&gt;- effets visuels passables ou moches&lt;br&gt;- effets sonores passables ou bofs" style="rounded=1;whiteSpace=wrap;html=1;sketch=1;hachureGap=4;jiggle=2;curveFitting=1;fontFamily=Architects Daughter;fontSource=https%3A%2F%2Ffonts.googleapis.com%2Fcss%3Ffamily%3DArchitects%2BDaughter;fontSize=20;fillColor=#dae8fc;strokeColor=#6c8ebf;" parent="1" vertex="1">
          <mxGeometry x="68" y="1661" width="381" height="179" as="geometry" />
        </mxCell>
        <mxCell id="t03bDn6xGk0svH1o40CN-77" value="conclusion d&#39;Ã©tape" style="rounded=1;whiteSpace=wrap;html=1;sketch=1;hachureGap=4;jiggle=2;curveFitting=1;fontFamily=Architects Daughter;fontSource=https%3A%2F%2Ffonts.googleapis.com%2Fcss%3Ffamily%3DArchitects%2BDaughter;fontSize=20;fillColor=#ffe6cc;strokeColor=#d79b00;" parent="1" vertex="1">
          <mxGeometry x="271" y="772" width="207" height="71" as="geometry" />
        </mxCell>
        <mxCell id="t03bDn6xGk0svH1o40CN-78" value="logique de planification" style="rounded=1;whiteSpace=wrap;html=1;sketch=1;hachureGap=4;jiggle=2;curveFitting=1;fontFamily=Architects Daughter;fontSource=https%3A%2F%2Ffonts.googleapis.com%2Fcss%3Ffamily%3DArchitects%2BDaughter;fontSize=20;fillColor=#dae8fc;strokeColor=#6c8ebf;" parent="1" vertex="1">
          <mxGeometry x="514" y="772" width="176" height="69" as="geometry" />
        </mxCell>
        <mxCell id="t03bDn6xGk0svH1o40CN-83" value="rÃ©flexion" style="rounded=1;whiteSpace=wrap;html=1;sketch=1;hachureGap=4;jiggle=2;curveFitting=1;fontFamily=Architects Daughter;fontSource=https%3A%2F%2Ffonts.googleapis.com%2Fcss%3Ffamily%3DArchitects%2BDaughter;fontSize=20;fillColor=#e1d5e7;strokeColor=#9673a6;" parent="1" vertex="1">
          <mxGeometry x="719" y="773" width="149" height="70" as="geometry" />
        </mxCell>
        <mxCell id="t03bDn6xGk0svH1o40CN-84" value="" style="endArrow=none;dashed=1;html=1;rounded=0;sketch=1;hachureGap=4;jiggle=2;curveFitting=1;fontFamily=Architects Daughter;fontSource=https%3A%2F%2Ffonts.googleapis.com%2Fcss%3Ffamily%3DArchitects%2BDaughter;fontSize=16;" parent="1" edge="1">
          <mxGeometry width="50" height="50" relative="1" as="geometry">
            <mxPoint x="69" y="569" as="sourcePoint" />
            <mxPoint x="1094" y="560" as="targetPoint" />
          </mxGeometry>
        </mxCell>
        <mxCell id="t03bDn6xGk0svH1o40CN-85" value="" style="endArrow=none;dashed=1;html=1;rounded=0;sketch=1;hachureGap=4;jiggle=2;curveFitting=1;fontFamily=Architects Daughter;fontSource=https%3A%2F%2Ffonts.googleapis.com%2Fcss%3Ffamily%3DArchitects%2BDaughter;fontSize=16;" parent="1" edge="1">
          <mxGeometry width="50" height="50" relative="1" as="geometry">
            <mxPoint x="39" y="2430" as="sourcePoint" />
            <mxPoint x="1122" y="2430" as="targetPoint" />
          </mxGeometry>
        </mxCell>
        <mxCell id="t03bDn6xGk0svH1o40CN-86" value="" style="endArrow=none;dashed=1;html=1;rounded=0;sketch=1;hachureGap=4;jiggle=2;curveFitting=1;fontFamily=Architects Daughter;fontSource=https%3A%2F%2Ffonts.googleapis.com%2Fcss%3Ffamily%3DArchitects%2BDaughter;fontSize=16;" parent="1" edge="1">
          <mxGeometry width="50" height="50" relative="1" as="geometry">
            <mxPoint x="72" y="914" as="sourcePoint" />
            <mxPoint x="1114" y="897" as="targetPoint" />
          </mxGeometry>
        </mxCell>
        <mxCell id="t03bDn6xGk0svH1o40CN-92" value="premier jet de musique" style="rounded=0;whiteSpace=wrap;html=1;sketch=1;hachureGap=4;jiggle=2;curveFitting=1;fontFamily=Architects Daughter;fontSource=https%3A%2F%2Ffonts.googleapis.com%2Fcss%3Ffamily%3DArchitects%2BDaughter;fontSize=20;fillColor=#d5e8d4;strokeColor=#82b366;" parent="1" vertex="1">
          <mxGeometry x="554" y="1779" width="159" height="68" as="geometry" />
        </mxCell>
        <mxCell id="t03bDn6xGk0svH1o40CN-96" value="Fun de jongler entre les sorts&lt;br&gt;MAIS il faut plus de contenu et un meilleur emballage (progression + HUD)" style="rounded=0;whiteSpace=wrap;html=1;sketch=1;hachureGap=4;jiggle=2;curveFitting=1;fontFamily=Architects Daughter;fontSource=https%3A%2F%2Ffonts.googleapis.com%2Fcss%3Ffamily%3DArchitects%2BDaughter;fontSize=20;fillColor=#f8cecc;strokeColor=#b85450;" parent="1" vertex="1">
          <mxGeometry x="648" y="289" width="347" height="107" as="geometry" />
        </mxCell>
        <mxCell id="t03bDn6xGk0svH1o40CN-97" value="Ã©tat du jeu" style="rounded=0;whiteSpace=wrap;html=1;sketch=1;hachureGap=4;jiggle=2;curveFitting=1;fontFamily=Architects Daughter;fontSource=https%3A%2F%2Ffonts.googleapis.com%2Fcss%3Ffamily%3DArchitects%2BDaughter;fontSize=20;" parent="1" vertex="1">
          <mxGeometry x="648" y="250" width="129" height="41" as="geometry" />
        </mxCell>
        <mxCell id="t03bDn6xGk0svH1o40CN-98" value="grosse amÃ©lioration Ã  venir (22/09/2023)" style="rounded=0;whiteSpace=wrap;html=1;sketch=1;hachureGap=4;jiggle=2;curveFitting=1;fontFamily=Architects Daughter;fontSource=https%3A%2F%2Ffonts.googleapis.com%2Fcss%3Ffamily%3DArchitects%2BDaughter;fontSize=20;" parent="1" vertex="1">
          <mxGeometry x="648" y="416" width="408" height="42" as="geometry" />
        </mxCell>
        <mxCell id="t03bDn6xGk0svH1o40CN-100" value="Transitions entre les arÃ¨nes" style="rounded=0;whiteSpace=wrap;html=1;sketch=1;hachureGap=4;jiggle=2;curveFitting=1;fontFamily=Architects Daughter;fontSource=https%3A%2F%2Ffonts.googleapis.com%2Fcss%3Ffamily%3DArchitects%2BDaughter;fontSize=20;fillColor=#fff2cc;strokeColor=#d6b656;" parent="1" vertex="1">
          <mxGeometry x="648" y="458" width="273" height="60" as="geometry" />
        </mxCell>
        <mxCell id="t03bDn6xGk0svH1o40CN-102" value="options de rÃ©solution" style="rounded=0;whiteSpace=wrap;html=1;sketch=1;hachureGap=4;jiggle=2;curveFitting=1;fontFamily=Architects Daughter;fontSource=https%3A%2F%2Ffonts.googleapis.com%2Fcss%3Ffamily%3DArchitects%2BDaughter;fontSize=20;fillColor=#fff2cc;strokeColor=#d6b656;" parent="1" vertex="1">
          <mxGeometry x="78" y="6924" width="235" height="75" as="geometry" />
        </mxCell>
        <mxCell id="t03bDn6xGk0svH1o40CN-104" value="lÃ©gende" style="text;html=1;strokeColor=none;fillColor=none;align=center;verticalAlign=middle;whiteSpace=wrap;rounded=0;fontSize=32;fontFamily=Architects Daughter;" parent="1" vertex="1">
          <mxGeometry x="129" y="714" width="60" height="30" as="geometry" />
        </mxCell>
        <mxCell id="t03bDn6xGk0svH1o40CN-107" value="idÃ©es de fonctionnalitÃ©s" style="text;html=1;strokeColor=none;fillColor=none;align=center;verticalAlign=middle;whiteSpace=wrap;rounded=0;fontSize=32;fontFamily=Architects Daughter;" parent="1" vertex="1">
          <mxGeometry x="73" y="6819" width="380" height="67" as="geometry" />
        </mxCell>
        <mxCell id="H5vm-Po7Uamn4ExQWBYj-1" value="Merci de remplir le formulaire de retours pour tous les commentaires que vous pourriez faire" style="rounded=0;whiteSpace=wrap;html=1;sketch=1;hachureGap=4;jiggle=2;curveFitting=1;fontFamily=Architects Daughter;fontSource=https%3A%2F%2Ffonts.googleapis.com%2Fcss%3Ffamily%3DArchitects%2BDaughter;fontSize=20;" parent="1" vertex="1">
          <mxGeometry x="113" y="251" width="354" height="165" as="geometry" />
        </mxCell>
        <mxCell id="H5vm-Po7Uamn4ExQWBYj-3" value="redimensionnement de la fenÃªtre" style="rounded=0;whiteSpace=wrap;html=1;sketch=1;hachureGap=4;jiggle=2;curveFitting=1;fontFamily=Architects Daughter;fontSource=https%3A%2F%2Ffonts.googleapis.com%2Fcss%3Ffamily%3DArchitects%2BDaughter;fontSize=20;fillColor=#f8cecc;strokeColor=#b85450;" parent="1" vertex="1">
          <mxGeometry x="280" y="5692" width="235" height="75" as="geometry" />
        </mxCell>
        <mxCell id="4Mnw6en9qDmpaSsgo7LY-7" style="edgeStyle=orthogonalEdgeStyle;sketch=1;hachureGap=4;jiggle=2;curveFitting=1;orthogonalLoop=1;jettySize=auto;html=1;exitX=0.5;exitY=1;exitDx=0;exitDy=0;fontFamily=Architects Daughter;fontSource=https%3A%2F%2Ffonts.googleapis.com%2Fcss%3Ffamily%3DArchitects%2BDaughter;fontSize=16;curved=1;" parent="1" source="4Mnw6en9qDmpaSsgo7LY-1" target="4Mnw6en9qDmpaSsgo7LY-6" edge="1">
          <mxGeometry relative="1" as="geometry" />
        </mxCell>
        <mxCell id="4Mnw6en9qDmpaSsgo7LY-1" value="- utilisation et fabrication confuses des sorts&lt;br&gt;- bug/absence des sons&lt;br&gt;- manque de sorts" style="rounded=1;whiteSpace=wrap;html=1;sketch=1;hachureGap=4;jiggle=2;curveFitting=1;fontFamily=Architects Daughter;fontSource=https%3A%2F%2Ffonts.googleapis.com%2Fcss%3Ffamily%3DArchitects%2BDaughter;fontSize=20;fillColor=#e1d5e7;strokeColor=#9673a6;" parent="1" vertex="1">
          <mxGeometry x="786" y="1974" width="315" height="152" as="geometry" />
        </mxCell>
        <mxCell id="4Mnw6en9qDmpaSsgo7LY-15" style="edgeStyle=orthogonalEdgeStyle;sketch=1;hachureGap=4;jiggle=2;curveFitting=1;orthogonalLoop=1;jettySize=auto;html=1;exitX=1;exitY=0.5;exitDx=0;exitDy=0;fontFamily=Architects Daughter;fontSource=https%3A%2F%2Ffonts.googleapis.com%2Fcss%3Ffamily%3DArchitects%2BDaughter;fontSize=16;curved=1;" parent="1" source="4Mnw6en9qDmpaSsgo7LY-4" target="4Mnw6en9qDmpaSsgo7LY-10" edge="1">
          <mxGeometry relative="1" as="geometry" />
        </mxCell>
        <mxCell id="4Mnw6en9qDmpaSsgo7LY-4" value="comment on planifie Ã§a ?&lt;br&gt;&lt;br&gt;- on corrige le bug de son&lt;br&gt;- on conceptualise et implÃ©mente la nouvelle faÃ§on de lancer les sorts&lt;br&gt;- on ajoute 5 sorts rapidement (comme dans l&#39;Ã©tape prÃ©cÃ©dente)" style="rounded=1;whiteSpace=wrap;html=1;sketch=1;hachureGap=4;jiggle=2;curveFitting=1;fontFamily=Architects Daughter;fontSource=https%3A%2F%2Ffonts.googleapis.com%2Fcss%3Ffamily%3DArchitects%2BDaughter;fontSize=20;fillColor=#dae8fc;strokeColor=#6c8ebf;" parent="1" vertex="1">
          <mxGeometry x="106" y="2560" width="381" height="179" as="geometry" />
        </mxCell>
        <mxCell id="4Mnw6en9qDmpaSsgo7LY-8" style="edgeStyle=orthogonalEdgeStyle;sketch=1;hachureGap=4;jiggle=2;curveFitting=1;orthogonalLoop=1;jettySize=auto;html=1;exitX=0.5;exitY=1;exitDx=0;exitDy=0;fontFamily=Architects Daughter;fontSource=https%3A%2F%2Ffonts.googleapis.com%2Fcss%3Ffamily%3DArchitects%2BDaughter;fontSize=16;curved=1;" parent="1" source="4Mnw6en9qDmpaSsgo7LY-6" target="4Mnw6en9qDmpaSsgo7LY-4" edge="1">
          <mxGeometry relative="1" as="geometry" />
        </mxCell>
        <mxCell id="4Mnw6en9qDmpaSsgo7LY-6" value="- on ajoute les 5 sorts manquants&lt;br&gt;- on corrige les bugs&lt;br&gt;- on expÃ©rimente une nouvelle faÃ§on de fabriquer les sorts" style="rounded=1;whiteSpace=wrap;html=1;sketch=1;hachureGap=4;jiggle=2;curveFitting=1;fontFamily=Architects Daughter;fontSource=https%3A%2F%2Ffonts.googleapis.com%2Fcss%3Ffamily%3DArchitects%2BDaughter;fontSize=20;fillColor=#e1d5e7;strokeColor=#9673a6;" parent="1" vertex="1">
          <mxGeometry x="683.5" y="2244" width="339" height="152" as="geometry" />
        </mxCell>
        <mxCell id="4Mnw6en9qDmpaSsgo7LY-9" value="14/09/2023" style="ellipse;whiteSpace=wrap;html=1;sketch=1;hachureGap=4;jiggle=2;curveFitting=1;fontFamily=Architects Daughter;fontSource=https%3A%2F%2Ffonts.googleapis.com%2Fcss%3Ffamily%3DArchitects%2BDaughter;fontSize=20;" parent="1" vertex="1">
          <mxGeometry x="178" y="2480" width="120" height="80" as="geometry" />
        </mxCell>
        <mxCell id="4Mnw6en9qDmpaSsgo7LY-13" style="edgeStyle=orthogonalEdgeStyle;sketch=1;hachureGap=4;jiggle=2;curveFitting=1;orthogonalLoop=1;jettySize=auto;html=1;exitX=1;exitY=0.5;exitDx=0;exitDy=0;fontFamily=Architects Daughter;fontSource=https%3A%2F%2Ffonts.googleapis.com%2Fcss%3Ffamily%3DArchitects%2BDaughter;fontSize=16;curved=1;" parent="1" source="4Mnw6en9qDmpaSsgo7LY-10" target="4Mnw6en9qDmpaSsgo7LY-12" edge="1">
          <mxGeometry relative="1" as="geometry" />
        </mxCell>
        <mxCell id="4Mnw6en9qDmpaSsgo7LY-10" value="fix bug sonore" style="rounded=0;whiteSpace=wrap;html=1;sketch=1;hachureGap=4;jiggle=2;curveFitting=1;fontFamily=Architects Daughter;fontSource=https%3A%2F%2Ffonts.googleapis.com%2Fcss%3Ffamily%3DArchitects%2BDaughter;fontSize=20;fillColor=#d5e8d4;strokeColor=#82b366;" parent="1" vertex="1">
          <mxGeometry x="571" y="2598" width="159" height="68" as="geometry" />
        </mxCell>
        <mxCell id="4Mnw6en9qDmpaSsgo7LY-23" style="edgeStyle=orthogonalEdgeStyle;sketch=1;hachureGap=4;jiggle=2;curveFitting=1;orthogonalLoop=1;jettySize=auto;html=1;exitX=0.5;exitY=1;exitDx=0;exitDy=0;entryX=0.5;entryY=0;entryDx=0;entryDy=0;fontFamily=Architects Daughter;fontSource=https%3A%2F%2Ffonts.googleapis.com%2Fcss%3Ffamily%3DArchitects%2BDaughter;fontSize=16;curved=1;" parent="1" source="4Mnw6en9qDmpaSsgo7LY-12" target="4Mnw6en9qDmpaSsgo7LY-16" edge="1">
          <mxGeometry relative="1" as="geometry" />
        </mxCell>
        <mxCell id="4Mnw6en9qDmpaSsgo7LY-12" value="nouvelle faÃ§on de lancer des sorts" style="rounded=0;whiteSpace=wrap;html=1;sketch=1;hachureGap=4;jiggle=2;curveFitting=1;fontFamily=Architects Daughter;fontSource=https%3A%2F%2Ffonts.googleapis.com%2Fcss%3Ffamily%3DArchitects%2BDaughter;fontSize=20;fillColor=#d5e8d4;strokeColor=#82b366;" parent="1" vertex="1">
          <mxGeometry x="858.5" y="2616" width="209.5" height="73" as="geometry" />
        </mxCell>
        <mxCell id="4Mnw6en9qDmpaSsgo7LY-14" value="avant le&lt;br&gt;15/09/2023" style="ellipse;whiteSpace=wrap;html=1;sketch=1;hachureGap=4;jiggle=2;curveFitting=1;fontFamily=Architects Daughter;fontSource=https%3A%2F%2Ffonts.googleapis.com%2Fcss%3Ffamily%3DArchitects%2BDaughter;fontSize=20;" parent="1" vertex="1">
          <mxGeometry x="918" y="2531" width="152.5" height="85" as="geometry" />
        </mxCell>
        <mxCell id="4Mnw6en9qDmpaSsgo7LY-25" style="edgeStyle=orthogonalEdgeStyle;sketch=1;hachureGap=4;jiggle=2;curveFitting=1;orthogonalLoop=1;jettySize=auto;html=1;exitX=1;exitY=0.5;exitDx=0;exitDy=0;fontFamily=Architects Daughter;fontSource=https%3A%2F%2Ffonts.googleapis.com%2Fcss%3Ffamily%3DArchitects%2BDaughter;fontSize=16;curved=1;" parent="1" source="4Mnw6en9qDmpaSsgo7LY-16" target="4Mnw6en9qDmpaSsgo7LY-24" edge="1">
          <mxGeometry relative="1" as="geometry" />
        </mxCell>
        <mxCell id="4Mnw6en9qDmpaSsgo7LY-16" value="" style="ellipse;whiteSpace=wrap;html=1;sketch=1;hachureGap=4;jiggle=2;curveFitting=1;fontFamily=Architects Daughter;fontSource=https%3A%2F%2Ffonts.googleapis.com%2Fcss%3Ffamily%3DArchitects%2BDaughter;fontSize=20;" parent="1" vertex="1">
          <mxGeometry x="42" y="2798" width="594" height="448" as="geometry" />
        </mxCell>
        <mxCell id="4Mnw6en9qDmpaSsgo7LY-17" value="chilling call" style="rounded=0;whiteSpace=wrap;html=1;sketch=1;hachureGap=4;jiggle=2;curveFitting=1;fontFamily=Architects Daughter;fontSource=https%3A%2F%2Ffonts.googleapis.com%2Fcss%3Ffamily%3DArchitects%2BDaughter;fontSize=20;fillColor=#d5e8d4;strokeColor=#82b366;" parent="1" vertex="1">
          <mxGeometry x="276" y="2992" width="159" height="68" as="geometry" />
        </mxCell>
        <mxCell id="4Mnw6en9qDmpaSsgo7LY-18" value="reapers" style="rounded=0;whiteSpace=wrap;html=1;sketch=1;hachureGap=4;jiggle=2;curveFitting=1;fontFamily=Architects Daughter;fontSource=https%3A%2F%2Ffonts.googleapis.com%2Fcss%3Ffamily%3DArchitects%2BDaughter;fontSize=20;fillColor=#d5e8d4;strokeColor=#82b366;" parent="1" vertex="1">
          <mxGeometry x="99" y="2916" width="159" height="68" as="geometry" />
        </mxCell>
        <mxCell id="4Mnw6en9qDmpaSsgo7LY-19" value="tundra" style="rounded=0;whiteSpace=wrap;html=1;sketch=1;hachureGap=4;jiggle=2;curveFitting=1;fontFamily=Architects Daughter;fontSource=https%3A%2F%2Ffonts.googleapis.com%2Fcss%3Ffamily%3DArchitects%2BDaughter;fontSize=20;fillColor=#d5e8d4;strokeColor=#82b366;" parent="1" vertex="1">
          <mxGeometry x="99" y="3035" width="159" height="68" as="geometry" />
        </mxCell>
        <mxCell id="4Mnw6en9qDmpaSsgo7LY-20" value="boost" style="rounded=0;whiteSpace=wrap;html=1;sketch=1;hachureGap=4;jiggle=2;curveFitting=1;fontFamily=Architects Daughter;fontSource=https%3A%2F%2Ffonts.googleapis.com%2Fcss%3Ffamily%3DArchitects%2BDaughter;fontSize=20;fillColor=#d5e8d4;strokeColor=#82b366;" parent="1" vertex="1">
          <mxGeometry x="412" y="2916" width="159" height="68" as="geometry" />
        </mxCell>
        <mxCell id="4Mnw6en9qDmpaSsgo7LY-21" value="shields" style="rounded=0;whiteSpace=wrap;html=1;sketch=1;hachureGap=4;jiggle=2;curveFitting=1;fontFamily=Architects Daughter;fontSource=https%3A%2F%2Ffonts.googleapis.com%2Fcss%3Ffamily%3DArchitects%2BDaughter;fontSize=20;fillColor=#d5e8d4;strokeColor=#82b366;" parent="1" vertex="1">
          <mxGeometry x="374" y="3084" width="159" height="68" as="geometry" />
        </mxCell>
        <mxCell id="4Mnw6en9qDmpaSsgo7LY-22" value="avant le&lt;br&gt;17/09/2023" style="ellipse;whiteSpace=wrap;html=1;sketch=1;hachureGap=4;jiggle=2;curveFitting=1;fontFamily=Architects Daughter;fontSource=https%3A%2F%2Ffonts.googleapis.com%2Fcss%3Ffamily%3DArchitects%2BDaughter;fontSize=20;" parent="1" vertex="1">
          <mxGeometry x="262.75" y="2820" width="152.5" height="85" as="geometry" />
        </mxCell>
        <mxCell id="SIEdCO1Ocyxo4KmFRoIF-12" style="edgeStyle=orthogonalEdgeStyle;sketch=1;hachureGap=4;jiggle=2;curveFitting=1;orthogonalLoop=1;jettySize=auto;html=1;exitX=0.5;exitY=1;exitDx=0;exitDy=0;fontFamily=Architects Daughter;fontSource=https%3A%2F%2Ffonts.googleapis.com%2Fcss%3Ffamily%3DArchitects%2BDaughter;fontSize=16;curved=1;" parent="1" source="4Mnw6en9qDmpaSsgo7LY-24" target="SIEdCO1Ocyxo4KmFRoIF-11" edge="1">
          <mxGeometry relative="1" as="geometry" />
        </mxCell>
        <mxCell id="4Mnw6en9qDmpaSsgo7LY-24" value="Utiliser les sorts est fun...&lt;br&gt;MAIS ajouter de la progression (xp, level up, amÃ©lioration des Ã©lÃ©ments) va rajouter une partie stratÃ©gique" style="rounded=1;whiteSpace=wrap;html=1;sketch=1;hachureGap=4;jiggle=2;curveFitting=1;fontFamily=Architects Daughter;fontSource=https%3A%2F%2Ffonts.googleapis.com%2Fcss%3Ffamily%3DArchitects%2BDaughter;fontSize=20;fillColor=#ffe6cc;strokeColor=#d79b00;" parent="1" vertex="1">
          <mxGeometry x="736" y="2957" width="320" height="170" as="geometry" />
        </mxCell>
        <mxCell id="prTSOB0Ut9Qwy-XwtZUk-4" style="edgeStyle=orthogonalEdgeStyle;sketch=1;hachureGap=4;jiggle=2;curveFitting=1;orthogonalLoop=1;jettySize=auto;html=1;entryX=0;entryY=0.5;entryDx=0;entryDy=0;fontFamily=Architects Daughter;fontSource=https%3A%2F%2Ffonts.googleapis.com%2Fcss%3Ffamily%3DArchitects%2BDaughter;fontSize=16;curved=1;" parent="1" source="SIEdCO1Ocyxo4KmFRoIF-1" target="SIEdCO1Ocyxo4KmFRoIF-6" edge="1">
          <mxGeometry relative="1" as="geometry" />
        </mxCell>
        <mxCell id="SIEdCO1Ocyxo4KmFRoIF-1" value="" style="ellipse;whiteSpace=wrap;html=1;sketch=1;hachureGap=4;jiggle=2;curveFitting=1;fontFamily=Architects Daughter;fontSource=https%3A%2F%2Ffonts.googleapis.com%2Fcss%3Ffamily%3DArchitects%2BDaughter;fontSize=20;" parent="1" vertex="1">
          <mxGeometry x="94" y="3668" width="496" height="385" as="geometry" />
        </mxCell>
        <mxCell id="SIEdCO1Ocyxo4KmFRoIF-3" value="avant le&lt;br&gt;18/09/2023" style="ellipse;whiteSpace=wrap;html=1;sketch=1;hachureGap=4;jiggle=2;curveFitting=1;fontFamily=Architects Daughter;fontSource=https%3A%2F%2Ffonts.googleapis.com%2Fcss%3Ffamily%3DArchitects%2BDaughter;fontSize=20;" parent="1" vertex="1">
          <mxGeometry x="276" y="3694" width="152.5" height="85" as="geometry" />
        </mxCell>
        <mxCell id="SIEdCO1Ocyxo4KmFRoIF-4" value="rÃ©cupÃ©ration de packs d&#39;xp" style="rounded=0;whiteSpace=wrap;html=1;sketch=1;hachureGap=4;jiggle=2;curveFitting=1;fontFamily=Architects Daughter;fontSource=https%3A%2F%2Ffonts.googleapis.com%2Fcss%3Ffamily%3DArchitects%2BDaughter;fontSize=20;fillColor=#d5e8d4;strokeColor=#82b366;" parent="1" vertex="1">
          <mxGeometry x="154" y="3790" width="180" height="80" as="geometry" />
        </mxCell>
        <mxCell id="SIEdCO1Ocyxo4KmFRoIF-5" value="amÃ©lioration de la maitrise des Ã©lÃ©ments" style="rounded=0;whiteSpace=wrap;html=1;sketch=1;hachureGap=4;jiggle=2;curveFitting=1;fontFamily=Architects Daughter;fontSource=https%3A%2F%2Ffonts.googleapis.com%2Fcss%3Ffamily%3DArchitects%2BDaughter;fontSize=20;fillColor=#d5e8d4;strokeColor=#82b366;" parent="1" vertex="1">
          <mxGeometry x="369.25" y="3817" width="172" height="79" as="geometry" />
        </mxCell>
        <mxCell id="prTSOB0Ut9Qwy-XwtZUk-3" style="edgeStyle=orthogonalEdgeStyle;sketch=1;hachureGap=4;jiggle=2;curveFitting=1;orthogonalLoop=1;jettySize=auto;html=1;fontFamily=Architects Daughter;fontSource=https%3A%2F%2Ffonts.googleapis.com%2Fcss%3Ffamily%3DArchitects%2BDaughter;fontSize=16;curved=1;" parent="1" source="SIEdCO1Ocyxo4KmFRoIF-6" target="prTSOB0Ut9Qwy-XwtZUk-2" edge="1">
          <mxGeometry relative="1" as="geometry" />
        </mxCell>
        <mxCell id="SIEdCO1Ocyxo4KmFRoIF-6" value="l&#39;amÃ©lioration des sorts par l&#39;amÃ©lioration des Ã©lÃ©ments ne s&#39;est pas rÃ©vÃ©lÃ©e intÃ©ressante" style="rounded=1;whiteSpace=wrap;html=1;sketch=1;hachureGap=4;jiggle=2;curveFitting=1;fontFamily=Architects Daughter;fontSource=https%3A%2F%2Ffonts.googleapis.com%2Fcss%3Ffamily%3DArchitects%2BDaughter;fontSize=20;fillColor=#ffe6cc;strokeColor=#d79b00;" parent="1" vertex="1">
          <mxGeometry x="648" y="3434" width="261" height="149" as="geometry" />
        </mxCell>
        <mxCell id="SIEdCO1Ocyxo4KmFRoIF-13" style="edgeStyle=orthogonalEdgeStyle;sketch=1;hachureGap=4;jiggle=2;curveFitting=1;orthogonalLoop=1;jettySize=auto;html=1;exitX=0.5;exitY=1;exitDx=0;exitDy=0;fontFamily=Architects Daughter;fontSource=https%3A%2F%2Ffonts.googleapis.com%2Fcss%3Ffamily%3DArchitects%2BDaughter;fontSize=16;curved=1;" parent="1" source="SIEdCO1Ocyxo4KmFRoIF-11" target="SIEdCO1Ocyxo4KmFRoIF-1" edge="1">
          <mxGeometry relative="1" as="geometry" />
        </mxCell>
        <mxCell id="SIEdCO1Ocyxo4KmFRoIF-11" value="comment on planifie Ã§a ?&lt;br&gt;&lt;br&gt;en une journÃ©e :&lt;br&gt;- montÃ©e en niveau et amÃ©lioration de la maÃ®trise des Ã©lÃ©ments&lt;br&gt;- modification des sorts en fonction de la maÃ®trise des Ã©lÃ©ments" style="rounded=1;whiteSpace=wrap;html=1;sketch=1;hachureGap=4;jiggle=2;curveFitting=1;fontFamily=Architects Daughter;fontSource=https%3A%2F%2Ffonts.googleapis.com%2Fcss%3Ffamily%3DArchitects%2BDaughter;fontSize=20;fillColor=#dae8fc;strokeColor=#6c8ebf;" parent="1" vertex="1">
          <mxGeometry x="94" y="3422" width="381" height="179" as="geometry" />
        </mxCell>
        <mxCell id="SIEdCO1Ocyxo4KmFRoIF-14" value="amÃ©lioration des sorts en fonction de la maÃ®trise des Ã©lÃ©ments" style="rounded=0;whiteSpace=wrap;html=1;sketch=1;hachureGap=4;jiggle=2;curveFitting=1;fontFamily=Architects Daughter;fontSource=https%3A%2F%2Ffonts.googleapis.com%2Fcss%3Ffamily%3DArchitects%2BDaughter;fontSize=20;fillColor=#d5e8d4;strokeColor=#82b366;" parent="1" vertex="1">
          <mxGeometry x="220" y="3916" width="214" height="99" as="geometry" />
        </mxCell>
        <mxCell id="SIEdCO1Ocyxo4KmFRoIF-15" value="18/09/2023" style="ellipse;whiteSpace=wrap;html=1;sketch=1;hachureGap=4;jiggle=2;curveFitting=1;fontFamily=Architects Daughter;fontSource=https%3A%2F%2Ffonts.googleapis.com%2Fcss%3Ffamily%3DArchitects%2BDaughter;fontSize=20;" parent="1" vertex="1">
          <mxGeometry x="132" y="3337" width="152.5" height="85" as="geometry" />
        </mxCell>
        <mxCell id="prTSOB0Ut9Qwy-XwtZUk-1" value="retard : 20/09/2023" style="ellipse;whiteSpace=wrap;html=1;sketch=1;hachureGap=4;jiggle=2;curveFitting=1;fontFamily=Architects Daughter;fontSource=https%3A%2F%2Ffonts.googleapis.com%2Fcss%3Ffamily%3DArchitects%2BDaughter;fontSize=20;" parent="1" vertex="1">
          <mxGeometry x="702.25" y="3346" width="152.5" height="85" as="geometry" />
        </mxCell>
        <mxCell id="prTSOB0Ut9Qwy-XwtZUk-6" style="edgeStyle=orthogonalEdgeStyle;sketch=1;hachureGap=4;jiggle=2;curveFitting=1;orthogonalLoop=1;jettySize=auto;html=1;fontFamily=Architects Daughter;fontSource=https%3A%2F%2Ffonts.googleapis.com%2Fcss%3Ffamily%3DArchitects%2BDaughter;fontSize=16;curved=1;" parent="1" source="prTSOB0Ut9Qwy-XwtZUk-2" target="prTSOB0Ut9Qwy-XwtZUk-5" edge="1">
          <mxGeometry relative="1" as="geometry" />
        </mxCell>
        <mxCell id="prTSOB0Ut9Qwy-XwtZUk-2" value="- dÃ©marrage avec des sorts faibles, du coup dÃ©but de partie inintÃ©ressant&lt;br&gt;- implication du joueur faible" style="rounded=1;whiteSpace=wrap;html=1;sketch=1;hachureGap=4;jiggle=2;curveFitting=1;fontFamily=Architects Daughter;fontSource=https%3A%2F%2Ffonts.googleapis.com%2Fcss%3Ffamily%3DArchitects%2BDaughter;fontSize=20;fillColor=#e1d5e7;strokeColor=#9673a6;" parent="1" vertex="1">
          <mxGeometry x="749" y="3687" width="315" height="152" as="geometry" />
        </mxCell>
        <mxCell id="prTSOB0Ut9Qwy-XwtZUk-9" style="edgeStyle=orthogonalEdgeStyle;sketch=1;hachureGap=4;jiggle=2;curveFitting=1;orthogonalLoop=1;jettySize=auto;html=1;entryX=0.5;entryY=0;entryDx=0;entryDy=0;fontFamily=Architects Daughter;fontSource=https%3A%2F%2Ffonts.googleapis.com%2Fcss%3Ffamily%3DArchitects%2BDaughter;fontSize=16;exitX=0.5;exitY=1;exitDx=0;exitDy=0;curved=1;" parent="1" source="prTSOB0Ut9Qwy-XwtZUk-5" target="prTSOB0Ut9Qwy-XwtZUk-7" edge="1">
          <mxGeometry relative="1" as="geometry" />
        </mxCell>
        <mxCell id="prTSOB0Ut9Qwy-XwtZUk-5" value="- on annule la logique de progression implÃ©mentÃ©e jusque-lÃ &lt;br&gt;- on rjaoute des transitions entre les tableaux/niveaux" style="rounded=1;whiteSpace=wrap;html=1;sketch=1;hachureGap=4;jiggle=2;curveFitting=1;fontFamily=Architects Daughter;fontSource=https%3A%2F%2Ffonts.googleapis.com%2Fcss%3Ffamily%3DArchitects%2BDaughter;fontSize=20;fillColor=#e1d5e7;strokeColor=#9673a6;" parent="1" vertex="1">
          <mxGeometry x="694" y="3902" width="370" height="203" as="geometry" />
        </mxCell>
        <mxCell id="gGiwMx9QiMazWThnVali-1" style="edgeStyle=orthogonalEdgeStyle;sketch=1;hachureGap=4;jiggle=2;curveFitting=1;orthogonalLoop=1;jettySize=auto;html=1;exitX=0;exitY=0.5;exitDx=0;exitDy=0;entryX=0.5;entryY=0;entryDx=0;entryDy=0;fontFamily=Architects Daughter;fontSource=https%3A%2F%2Ffonts.googleapis.com%2Fcss%3Ffamily%3DArchitects%2BDaughter;fontSize=16;curved=1;" parent="1" source="prTSOB0Ut9Qwy-XwtZUk-7" target="prTSOB0Ut9Qwy-XwtZUk-18" edge="1">
          <mxGeometry relative="1" as="geometry" />
        </mxCell>
        <mxCell id="prTSOB0Ut9Qwy-XwtZUk-7" value="comment on planifie Ã§a ?&lt;br&gt;&lt;br&gt;en une seule journÃ©e :&lt;br&gt;- on enlÃ¨ve la logique actuelle de progression&lt;br&gt;- on ajoute la logique de transitions entre les niveaux&lt;br&gt;- on ajoute les biomes" style="rounded=1;whiteSpace=wrap;html=1;sketch=1;hachureGap=4;jiggle=2;curveFitting=1;fontFamily=Architects Daughter;fontSource=https%3A%2F%2Ffonts.googleapis.com%2Fcss%3Ffamily%3DArchitects%2BDaughter;fontSize=20;fillColor=#dae8fc;strokeColor=#6c8ebf;" parent="1" vertex="1">
          <mxGeometry x="651.5" y="4295" width="437" height="227" as="geometry" />
        </mxCell>
        <mxCell id="prTSOB0Ut9Qwy-XwtZUk-10" value="22/09/2023" style="ellipse;whiteSpace=wrap;html=1;sketch=1;hachureGap=4;jiggle=2;curveFitting=1;fontFamily=Architects Daughter;fontSource=https%3A%2F%2Ffonts.googleapis.com%2Fcss%3Ffamily%3DArchitects%2BDaughter;fontSize=20;" parent="1" vertex="1">
          <mxGeometry x="685.5" y="4210" width="152.5" height="85" as="geometry" />
        </mxCell>
        <mxCell id="prTSOB0Ut9Qwy-XwtZUk-11" value="suppression de la logique d&#39;amÃ©lioration" style="rounded=0;whiteSpace=wrap;html=1;sketch=1;hachureGap=4;jiggle=2;curveFitting=1;fontFamily=Architects Daughter;fontSource=https%3A%2F%2Ffonts.googleapis.com%2Fcss%3Ffamily%3DArchitects%2BDaughter;fontSize=20;fillColor=#d5e8d4;strokeColor=#82b366;" parent="1" vertex="1">
          <mxGeometry x="116" y="4721" width="214" height="99" as="geometry" />
        </mxCell>
        <mxCell id="prTSOB0Ut9Qwy-XwtZUk-12" value="" style="endArrow=none;dashed=1;html=1;rounded=0;sketch=1;hachureGap=4;jiggle=2;curveFitting=1;fontFamily=Architects Daughter;fontSource=https%3A%2F%2Ffonts.googleapis.com%2Fcss%3Ffamily%3DArchitects%2BDaughter;fontSize=16;" parent="1" edge="1">
          <mxGeometry width="50" height="50" relative="1" as="geometry">
            <mxPoint x="25" y="4177" as="sourcePoint" />
            <mxPoint x="1108" y="4177" as="targetPoint" />
          </mxGeometry>
        </mxCell>
        <mxCell id="prTSOB0Ut9Qwy-XwtZUk-13" value="" style="endArrow=none;dashed=1;html=1;rounded=0;sketch=1;hachureGap=4;jiggle=2;curveFitting=1;fontFamily=Architects Daughter;fontSource=https%3A%2F%2Ffonts.googleapis.com%2Fcss%3Ffamily%3DArchitects%2BDaughter;fontSize=16;" parent="1" edge="1">
          <mxGeometry width="50" height="50" relative="1" as="geometry">
            <mxPoint x="52" y="3300" as="sourcePoint" />
            <mxPoint x="1135" y="3300" as="targetPoint" />
          </mxGeometry>
        </mxCell>
        <mxCell id="prTSOB0Ut9Qwy-XwtZUk-17" value="transition entre les niveaux" style="rounded=0;whiteSpace=wrap;html=1;sketch=1;hachureGap=4;jiggle=2;curveFitting=1;fontFamily=Architects Daughter;fontSource=https%3A%2F%2Ffonts.googleapis.com%2Fcss%3Ffamily%3DArchitects%2BDaughter;fontSize=20;fillColor=#d5e8d4;strokeColor=#82b366;" parent="1" vertex="1">
          <mxGeometry x="340" y="4600" width="214" height="99" as="geometry" />
        </mxCell>
        <mxCell id="prTSOB0Ut9Qwy-XwtZUk-20" value="avant le :&lt;br&gt;22/09/2023" style="ellipse;whiteSpace=wrap;html=1;sketch=1;hachureGap=4;jiggle=2;curveFitting=1;fontFamily=Architects Daughter;fontSource=https%3A%2F%2Ffonts.googleapis.com%2Fcss%3Ffamily%3DArchitects%2BDaughter;fontSize=20;" parent="1" vertex="1">
          <mxGeometry x="116" y="4585" width="152.5" height="85" as="geometry" />
        </mxCell>
        <mxCell id="gGiwMx9QiMazWThnVali-16" style="edgeStyle=orthogonalEdgeStyle;sketch=1;hachureGap=4;jiggle=2;curveFitting=1;orthogonalLoop=1;jettySize=auto;html=1;exitX=0;exitY=1;exitDx=0;exitDy=0;fontFamily=Architects Daughter;fontSource=https%3A%2F%2Ffonts.googleapis.com%2Fcss%3Ffamily%3DArchitects%2BDaughter;fontSize=16;curved=1;dashed=1;" parent="1" source="prTSOB0Ut9Qwy-XwtZUk-21" target="H5vm-Po7Uamn4ExQWBYj-3" edge="1">
          <mxGeometry relative="1" as="geometry">
            <Array as="points">
              <mxPoint x="513" y="5633" />
              <mxPoint x="513" y="5638" />
              <mxPoint x="421" y="5638" />
            </Array>
          </mxGeometry>
        </mxCell>
        <mxCell id="gGiwMx9QiMazWThnVali-18" style="edgeStyle=orthogonalEdgeStyle;sketch=1;hachureGap=4;jiggle=2;curveFitting=1;orthogonalLoop=1;jettySize=auto;html=1;fontFamily=Architects Daughter;fontSource=https%3A%2F%2Ffonts.googleapis.com%2Fcss%3Ffamily%3DArchitects%2BDaughter;fontSize=16;curved=1;" parent="1" source="prTSOB0Ut9Qwy-XwtZUk-21" target="gGiwMx9QiMazWThnVali-17" edge="1">
          <mxGeometry relative="1" as="geometry" />
        </mxCell>
        <mxCell id="prTSOB0Ut9Qwy-XwtZUk-21" value="" style="ellipse;whiteSpace=wrap;html=1;sketch=1;hachureGap=4;jiggle=2;curveFitting=1;fontFamily=Architects Daughter;fontSource=https%3A%2F%2Ffonts.googleapis.com%2Fcss%3Ffamily%3DArchitects%2BDaughter;fontSize=20;" parent="1" vertex="1">
          <mxGeometry x="533" y="5287" width="587" height="405" as="geometry" />
        </mxCell>
        <mxCell id="prTSOB0Ut9Qwy-XwtZUk-23" value="avant le :&lt;br&gt;24/09/2023" style="ellipse;whiteSpace=wrap;html=1;sketch=1;hachureGap=4;jiggle=2;curveFitting=1;fontFamily=Architects Daughter;fontSource=https%3A%2F%2Ffonts.googleapis.com%2Fcss%3Ffamily%3DArchitects%2BDaughter;fontSize=20;" parent="1" vertex="1">
          <mxGeometry x="659" y="5326" width="152.5" height="85" as="geometry" />
        </mxCell>
        <mxCell id="prTSOB0Ut9Qwy-XwtZUk-24" value="refonte de l&#39;arÃ¨ne" style="rounded=0;whiteSpace=wrap;html=1;sketch=1;hachureGap=4;jiggle=2;curveFitting=1;fontFamily=Architects Daughter;fontSource=https%3A%2F%2Ffonts.googleapis.com%2Fcss%3Ffamily%3DArchitects%2BDaughter;fontSize=20;fillColor=#f8cecc;strokeColor=#b85450;" parent="1" vertex="1">
          <mxGeometry x="568" y="5438" width="214" height="99" as="geometry" />
        </mxCell>
        <mxCell id="gGiwMx9QiMazWThnVali-6" style="edgeStyle=orthogonalEdgeStyle;sketch=1;hachureGap=4;jiggle=2;curveFitting=1;orthogonalLoop=1;jettySize=auto;html=1;fontFamily=Architects Daughter;fontSource=https%3A%2F%2Ffonts.googleapis.com%2Fcss%3Ffamily%3DArchitects%2BDaughter;fontSize=16;curved=1;" parent="1" source="gGiwMx9QiMazWThnVali-2" target="gGiwMx9QiMazWThnVali-5" edge="1">
          <mxGeometry relative="1" as="geometry" />
        </mxCell>
        <mxCell id="gGiwMx9QiMazWThnVali-2" value="la prÃ©sence des transitions rajoute du rythme" style="rounded=1;whiteSpace=wrap;html=1;sketch=1;hachureGap=4;jiggle=2;curveFitting=1;fontFamily=Architects Daughter;fontSource=https%3A%2F%2Ffonts.googleapis.com%2Fcss%3Ffamily%3DArchitects%2BDaughter;fontSize=20;fillColor=#ffe6cc;strokeColor=#d79b00;" parent="1" vertex="1">
          <mxGeometry x="807" y="4659" width="261" height="149" as="geometry" />
        </mxCell>
        <mxCell id="gGiwMx9QiMazWThnVali-3" value="retard : 23/09/2023" style="ellipse;whiteSpace=wrap;html=1;sketch=1;hachureGap=4;jiggle=2;curveFitting=1;fontFamily=Architects Daughter;fontSource=https%3A%2F%2Ffonts.googleapis.com%2Fcss%3Ffamily%3DArchitects%2BDaughter;fontSize=20;" parent="1" vertex="1">
          <mxGeometry x="861.25" y="4571" width="152.5" height="85" as="geometry" />
        </mxCell>
        <mxCell id="gGiwMx9QiMazWThnVali-8" style="edgeStyle=orthogonalEdgeStyle;sketch=1;hachureGap=4;jiggle=2;curveFitting=1;orthogonalLoop=1;jettySize=auto;html=1;exitX=0;exitY=0.5;exitDx=0;exitDy=0;fontFamily=Architects Daughter;fontSource=https%3A%2F%2Ffonts.googleapis.com%2Fcss%3Ffamily%3DArchitects%2BDaughter;fontSize=16;curved=1;" parent="1" source="gGiwMx9QiMazWThnVali-5" target="gGiwMx9QiMazWThnVali-7" edge="1">
          <mxGeometry relative="1" as="geometry" />
        </mxCell>
        <mxCell id="gGiwMx9QiMazWThnVali-5" value="Ã  partir de maintenant, il va s&#39;agir de rajouter le gros du contenu du jeu (monstres, environnments, amÃ©lioration des sorts, HUD...)" style="rounded=1;whiteSpace=wrap;html=1;sketch=1;hachureGap=4;jiggle=2;curveFitting=1;fontFamily=Architects Daughter;fontSource=https%3A%2F%2Ffonts.googleapis.com%2Fcss%3Ffamily%3DArchitects%2BDaughter;fontSize=20;fillColor=#e1d5e7;strokeColor=#9673a6;" parent="1" vertex="1">
          <mxGeometry x="668" y="5014" width="370" height="203" as="geometry" />
        </mxCell>
        <mxCell id="gGiwMx9QiMazWThnVali-11" style="edgeStyle=orthogonalEdgeStyle;sketch=1;hachureGap=4;jiggle=2;curveFitting=1;orthogonalLoop=1;jettySize=auto;html=1;fontFamily=Architects Daughter;fontSource=https%3A%2F%2Ffonts.googleapis.com%2Fcss%3Ffamily%3DArchitects%2BDaughter;fontSize=16;curved=1;" parent="1" source="gGiwMx9QiMazWThnVali-7" target="gGiwMx9QiMazWThnVali-9" edge="1">
          <mxGeometry relative="1" as="geometry" />
        </mxCell>
        <mxCell id="gGiwMx9QiMazWThnVali-7" value="dans un premier temps, il faut dÃ©finir le style esthÃ©tique (visuel et sonore) dÃ©finitif du jeu&lt;br&gt;&lt;br&gt;idÃ©alement, on veut un style permettant des itÃ©rations rapides Ã  moindres efforts" style="rounded=1;whiteSpace=wrap;html=1;sketch=1;hachureGap=4;jiggle=2;curveFitting=1;fontFamily=Architects Daughter;fontSource=https%3A%2F%2Ffonts.googleapis.com%2Fcss%3Ffamily%3DArchitects%2BDaughter;fontSize=20;fillColor=#e1d5e7;strokeColor=#9673a6;" parent="1" vertex="1">
          <mxGeometry x="122" y="5014" width="370" height="203" as="geometry" />
        </mxCell>
        <mxCell id="gGiwMx9QiMazWThnVali-13" style="edgeStyle=orthogonalEdgeStyle;sketch=1;hachureGap=4;jiggle=2;curveFitting=1;orthogonalLoop=1;jettySize=auto;html=1;exitX=1;exitY=0.5;exitDx=0;exitDy=0;fontFamily=Architects Daughter;fontSource=https%3A%2F%2Ffonts.googleapis.com%2Fcss%3Ffamily%3DArchitects%2BDaughter;fontSize=16;curved=1;" parent="1" source="gGiwMx9QiMazWThnVali-9" target="prTSOB0Ut9Qwy-XwtZUk-21" edge="1">
          <mxGeometry relative="1" as="geometry" />
        </mxCell>
        <mxCell id="gGiwMx9QiMazWThnVali-9" value="comment on planifie Ã§a ?&lt;br&gt;&lt;br&gt;PREMIÃRE ÃTAPE&lt;br&gt;&lt;br&gt;en une seule journÃ©e :&lt;br&gt;- refonte de l&#39;aspect visuel de l&#39;arÃ¨ne&lt;br&gt;- refonte visuelle et sonore du mÃ©tÃ©ore&lt;br&gt;- refonte visuelle et sonore de la tornade" style="rounded=1;whiteSpace=wrap;html=1;sketch=1;hachureGap=4;jiggle=2;curveFitting=1;fontFamily=Architects Daughter;fontSource=https%3A%2F%2Ffonts.googleapis.com%2Fcss%3Ffamily%3DArchitects%2BDaughter;fontSize=20;fillColor=#dae8fc;strokeColor=#6c8ebf;" parent="1" vertex="1">
          <mxGeometry x="25.5" y="5370" width="437" height="227" as="geometry" />
        </mxCell>
        <mxCell id="gGiwMx9QiMazWThnVali-10" value="biomes" style="rounded=0;whiteSpace=wrap;html=1;sketch=1;hachureGap=4;jiggle=2;curveFitting=1;fontFamily=Architects Daughter;fontSource=https%3A%2F%2Ffonts.googleapis.com%2Fcss%3Ffamily%3DArchitects%2BDaughter;fontSize=20;fillColor=#d5e8d4;strokeColor=#82b366;" parent="1" vertex="1">
          <mxGeometry x="352" y="4747" width="214" height="99" as="geometry" />
        </mxCell>
        <mxCell id="gGiwMx9QiMazWThnVali-12" value="23/09/2023" style="ellipse;whiteSpace=wrap;html=1;sketch=1;hachureGap=4;jiggle=2;curveFitting=1;fontFamily=Architects Daughter;fontSource=https%3A%2F%2Ffonts.googleapis.com%2Fcss%3Ffamily%3DArchitects%2BDaughter;fontSize=20;" parent="1" vertex="1">
          <mxGeometry x="87.5" y="5285" width="152.5" height="85" as="geometry" />
        </mxCell>
        <mxCell id="gGiwMx9QiMazWThnVali-14" value="refonte du mÃ©tÃ©ore" style="rounded=0;whiteSpace=wrap;html=1;sketch=1;hachureGap=4;jiggle=2;curveFitting=1;fontFamily=Architects Daughter;fontSource=https%3A%2F%2Ffonts.googleapis.com%2Fcss%3Ffamily%3DArchitects%2BDaughter;fontSize=20;fillColor=#f8cecc;strokeColor=#b85450;" parent="1" vertex="1">
          <mxGeometry x="858.5" y="5404" width="214" height="99" as="geometry" />
        </mxCell>
        <mxCell id="gGiwMx9QiMazWThnVali-15" value="refonte de la tornade" style="rounded=0;whiteSpace=wrap;html=1;sketch=1;hachureGap=4;jiggle=2;curveFitting=1;fontFamily=Architects Daughter;fontSource=https%3A%2F%2Ffonts.googleapis.com%2Fcss%3Ffamily%3DArchitects%2BDaughter;fontSize=20;fillColor=#f8cecc;strokeColor=#b85450;" parent="1" vertex="1">
          <mxGeometry x="808.5" y="5529" width="214" height="99" as="geometry" />
        </mxCell>
        <mxCell id="gGiwMx9QiMazWThnVali-17" value="SUITE..." style="rounded=1;whiteSpace=wrap;html=1;sketch=1;hachureGap=4;jiggle=2;curveFitting=1;fontFamily=Architects Daughter;fontSource=https%3A%2F%2Ffonts.googleapis.com%2Fcss%3Ffamily%3DArchitects%2BDaughter;fontSize=20;fillColor=#ffe6cc;strokeColor=#d79b00;" parent="1" vertex="1">
          <mxGeometry x="600.25" y="5926" width="261" height="149" as="geometry" />
        </mxCell>
        <mxCell id="T17EeEo3EBJF8xaT3HcU-1" value="&lt;a href=&quot;https://docs.google.com/forms/d/1zv2Fwn-2nT_-yPd92M44uSQxgPftN2-Xo-bl5oVsjmU/viewform?edit_requested=true&quot;&gt;Formulaire de retours&lt;/a&gt;" style="rounded=0;whiteSpace=wrap;html=1;sketch=1;hachureGap=4;jiggle=2;curveFitting=1;fontFamily=Architects Daughter;fontSource=https%3A%2F%2Ffonts.googleapis.com%2Fcss%3Ffamily%3DArchitects%2BDaughter;fontSize=12;fillColor=#dae8fc;strokeColor=#6c8ebf;" vertex="1" parent="1">
          <mxGeometry x="124" y="427" width="321" height="62" as="geometry" />
        </mxCell>
      </root>
    </mxGraphModel>
  </diagram>
</mxfile>
